<svg width="30" height="30" viewBox="0 0 30 30" fill="none" xmlns="http://www.w3.org/2000/svg">
<g clip-path="url(#clip0_353_18186)">
<path d="M9.46289 0.146484C9.32227 0.28125 9.31641 0.316406 9.31641 1.05469C9.31641 1.79297 9.32227 1.82812 9.46289 1.96289C9.55664 2.0625 9.66797 2.10938 9.81445 2.10938C9.96094 2.10938 10.0723 2.0625 10.166 1.96289C10.3066 1.82812 10.3125 1.79297 10.3125 1.06641C10.3125 0.328125 10.3066 0.304688 10.1602 0.152344C9.95508 -0.0527344 9.65625 -0.0527344 9.46289 0.146484Z" fill="#084CAF"/>
<path d="M11.9294 0.123116L11.7771 0.240303V3.60358C11.7771 6.82038 11.783 6.96687 11.8884 7.09577C11.9939 7.22468 12.0583 7.2364 12.656 7.26569L13.3123 7.29499L12.2107 8.49616C11.6072 9.15827 11.0916 9.70319 11.074 9.71491C11.0505 9.72077 10.5115 9.18171 9.8728 8.51374L8.71851 7.29499L9.37476 7.26569C10.0017 7.2364 10.0369 7.23054 10.1716 7.07234L10.3123 6.90827V5.29694V3.68562L10.1658 3.54499C9.96069 3.33405 9.60327 3.33991 9.43921 3.55085C9.32202 3.69733 9.31616 3.77937 9.31616 4.9864V6.2696H8.30249C7.31811 6.2696 7.28296 6.27546 7.15991 6.40437C7.07202 6.49226 7.03101 6.6153 7.03101 6.76179C7.03101 7.00788 6.88452 6.84382 9.30444 9.38679C10.8572 11.0216 10.9685 11.1094 11.2673 10.9454C11.4197 10.8634 14.8298 7.1778 14.9412 6.97859C15.0408 6.78523 15.0056 6.56257 14.8533 6.41609C14.7126 6.2696 14.6951 6.2696 13.7458 6.2696H12.7791L12.7615 3.27546L12.7439 0.281319L12.5798 0.140694C12.3806 -0.0292282 12.1345 -0.040947 11.9294 0.123116Z" fill="#084CAF"/>
<path d="M17.4727 1.77539C17.3555 1.9043 17.3438 1.96875 17.3438 2.70703C17.3438 3.50391 17.3438 3.50977 17.4961 3.62695C17.584 3.69727 17.7246 3.75 17.8125 3.75C17.9004 3.75 18.041 3.69727 18.1289 3.62695C18.2812 3.50977 18.2812 3.50391 18.2812 2.70117C18.2812 1.93359 18.2754 1.88672 18.1465 1.76953C17.959 1.59375 17.6367 1.59961 17.4727 1.77539Z" fill="#084CAF"/>
<path d="M19.8918 1.78703L19.7453 1.92766V5.91203C19.7453 10.0019 19.7512 10.1308 19.9738 10.2363C20.0266 10.2597 20.3488 10.2948 20.6945 10.3124L21.3273 10.3417L20.2082 11.5605C19.593 12.2284 19.0656 12.7734 19.0305 12.7616C19.0012 12.7499 18.468 12.1991 17.841 11.5429L16.7102 10.3417L17.3723 10.3124C18.3742 10.2655 18.2805 10.5351 18.2805 7.69328C18.2805 6.28703 18.257 5.27922 18.2219 5.22062C18.1281 5.03898 17.841 4.95109 17.6359 5.03898C17.5363 5.08 17.4309 5.16203 17.4016 5.22062C17.3664 5.27922 17.343 6.15227 17.343 7.31828V9.31633H16.3176C15.3039 9.31633 15.2863 9.31633 15.1457 9.46281C14.9875 9.61516 14.9582 9.85539 15.0754 10.0546C15.216 10.3066 18.7844 14.0097 18.9133 14.039C18.9836 14.0624 19.1066 14.0566 19.1828 14.039C19.3469 13.998 19.4816 13.8632 21.468 11.6894C22.9269 10.0898 22.968 10.0429 22.968 9.80266C22.968 9.6093 22.9387 9.53313 22.8156 9.43938C22.6691 9.32805 22.5812 9.31633 21.7023 9.31633H20.7414V5.62492V1.92766L20.5949 1.78703C20.4016 1.58781 20.0852 1.58781 19.8918 1.78703Z" fill="#084CAF"/>
<path d="M3.40924 12.334C3.05767 12.4453 2.71783 12.6914 2.51275 12.9844C2.14947 13.5118 2.16119 13.2071 2.17877 21.2754C2.19635 27.3399 2.21392 28.6582 2.27838 28.8399C2.42486 29.2266 2.75885 29.6016 3.13385 29.795L3.47955 29.9707L14.9053 29.9883C27.9307 30.0059 26.7354 30.0528 27.3038 29.4844C27.5499 29.2383 27.6553 29.0743 27.7198 28.8575C27.7901 28.6114 27.8018 27.586 27.8018 22.3536V16.1426L27.6378 15.8086C27.462 15.4512 27.2042 15.1934 26.8174 14.9883L26.5713 14.8536L19.335 14.8243C11.0967 14.7891 11.9053 14.8536 11.6417 14.25C11.5596 14.0684 11.4131 13.711 11.3077 13.4649C11.0967 12.9434 10.7862 12.5918 10.3819 12.4043C10.1124 12.2754 10.0479 12.2754 6.88385 12.2637C4.294 12.252 3.60846 12.2696 3.40924 12.334ZM9.9483 13.3243C10.1885 13.4473 10.2764 13.5762 10.4874 14.1211C10.8624 15.0821 11.0674 15.3692 11.5655 15.6328L11.8643 15.7911L19.1124 15.8203L26.3545 15.8496L26.5128 15.9961C26.8467 16.3008 26.835 16.0254 26.835 22.4414C26.835 28.9629 26.8526 28.6524 26.4717 28.8868C26.2784 29.0039 26.2081 29.0039 15.0225 29.0039H3.76666L3.56744 28.8692C3.13385 28.5821 3.16314 29.168 3.16314 21.1231C3.16314 13.0782 3.13385 13.6641 3.56744 13.377L3.76666 13.2422H6.77838C9.24517 13.2422 9.81939 13.2598 9.9483 13.3243Z" fill="#084CAF"/>
<path d="M4.85574 21.9082C4.63895 22.1308 4.62723 22.3886 4.83231 22.5879L4.97293 22.7343H7.42801C10.1878 22.7343 10.1057 22.7461 10.1761 22.3125C10.2054 22.125 10.1819 22.0722 10.0296 21.914L9.85379 21.7383H7.43973H5.02567L4.85574 21.9082Z" fill="#084CAF"/>
<path d="M11.5957 21.9082C11.502 22.002 11.4258 22.1367 11.4258 22.207C11.4258 22.377 11.5781 22.6523 11.6895 22.6992C11.7422 22.7168 12.4336 22.7344 13.2188 22.7344H14.6543L14.7949 22.5879C15 22.3887 14.9883 22.1309 14.7715 21.9082L14.6016 21.7383H13.1836H11.7656L11.5957 21.9082Z" fill="#084CAF"/>
<path d="M4.83362 24.2871C4.62854 24.4863 4.64026 24.7441 4.86292 24.9668L5.03284 25.1426L6.40979 25.125C7.72815 25.1074 7.7926 25.1016 7.91565 24.9844C8.09143 24.8086 8.09143 24.4805 7.90979 24.2871L7.77503 24.1406H6.37464H4.97425L4.83362 24.2871Z" fill="#084CAF"/>
<path d="M9.34419 24.2871C9.1977 24.4277 9.15669 24.668 9.23286 24.873C9.33247 25.125 9.47309 25.1367 12.0981 25.1367H14.6L14.77 24.9668C14.9868 24.7441 14.9985 24.4863 14.7934 24.2871L14.6528 24.1406H12.0688H9.48481L9.34419 24.2871Z" fill="#084CAF"/>
<path d="M5.00215 26.543C4.67989 26.6719 4.592 27.0996 4.83223 27.334L4.97285 27.4805H8.18965H11.4064L11.5295 27.3457C11.6936 27.1758 11.6994 26.8418 11.5471 26.6543L11.4357 26.5137L8.27754 26.502C6.54317 26.4961 5.0666 26.5137 5.00215 26.543Z" fill="#084CAF"/>
</g>
<defs>
<clipPath id="clip0_353_18186">
<rect width="30" height="30" fill="white"/>
</clipPath>
</defs>
</svg>
