<svg width="54" height="57" viewBox="0 0 54 57" fill="none" xmlns="http://www.w3.org/2000/svg">
<path d="M12.8828 13.3616V39.1555C12.8828 39.348 13.0389 39.504 13.2314 39.504H21.655C21.8476 39.504 22.0036 39.348 22.0036 39.1555V31.0223C22.0036 30.8298 22.1597 30.6737 22.3522 30.6737H31.5311C31.7236 30.6737 31.8796 30.8298 31.8796 31.0223V39.1555C31.8796 39.348 32.0357 39.504 32.2282 39.504H40.8262C41.0187 39.504 41.1747 39.348 41.1747 39.1555V3.36938" stroke="#084CAF" stroke-width="2.32377"/>
<path d="M21.7129 6.0415V20.6813C21.7129 20.8738 21.8689 21.0298 22.0615 21.0298H31.008C31.2005 21.0298 31.3565 20.8738 31.3565 20.6813V16.208" stroke="#084CAF" stroke-width="2.32377"/>
<circle cx="12.7672" cy="12.1998" r="1.51045" stroke="#084CAF" stroke-width="1.16189"/>
<circle cx="21.7125" cy="4.99593" r="1.51045" stroke="#084CAF" stroke-width="1.16189"/>
<circle cx="31.357" cy="14.9881" r="1.51045" stroke="#084CAF" stroke-width="1.16189"/>
<circle cx="41.232" cy="2.09139" r="1.51045" stroke="#084CAF" stroke-width="1.16189"/>
<path d="M0.483239 49.6055V44.9986H1.33696V46.8993H3.60819V44.9986H4.46191V49.6055H3.60819V47.6403H1.33696V49.6055H0.483239ZM7.00826 44.9986H7.92641L9.22149 47.2183L10.4393 44.9986H11.3252L9.63063 47.9947V49.6055H8.77691V47.9947L7.00826 44.9986ZM13.5784 49.6055V44.9986H15.6402C16.5809 44.9986 17.0513 45.4314 17.0513 46.2969C17.0513 47.2354 16.408 47.8035 15.1215 48.0011L14.9991 47.2408C15.7723 47.1012 16.1589 46.7952 16.1589 46.3227C16.1589 45.9404 15.9677 45.7492 15.5854 45.7492H14.4321V49.6055H13.5784ZM22.7515 44.9986V45.7331H20.4449V46.8929H22.642V47.6564H20.4352V48.8645H22.7966V49.6055H19.5976V44.9986H22.7515ZM25.5653 49.599V44.9986H27.6593C28.6 44.9986 29.0704 45.4099 29.0704 46.2325C29.0704 46.7887 28.7042 47.2494 27.9718 47.6145L29.4312 49.6055H28.3552L26.9538 47.5984V47.2086C27.7699 47.069 28.178 46.7522 28.178 46.2582C28.178 45.9189 27.9868 45.7492 27.6046 45.7492H26.4351V49.599H25.5653ZM32.6702 44.9986V48.8645H34.5001V49.6055H31.8165V44.9986H32.6702ZM40.442 44.9986V45.7331H38.1353V46.8929H40.3324V47.6564H38.1256V48.8645H40.4871V49.6055H37.288V44.9986H40.442ZM46.4096 44.9986V45.7331H44.103V46.8929H46.3001V47.6564H44.0933V48.8645H46.4547V49.6055H43.2557V44.9986H46.4096ZM49.2234 49.6055V44.9986H50.0771L52.5094 48.3555V44.9986H53.3309V49.6055H52.4772L50.0449 46.1777V49.6055H49.2234Z" fill="black"/>
<path d="M0.219068 55.189V53.3462H1.00514C1.35565 53.3462 1.5309 53.4893 1.5309 53.7753C1.5309 53.9849 1.41664 54.1349 1.18812 54.2251C1.43211 54.2706 1.5541 54.4102 1.5541 54.6439C1.5541 55.0073 1.36209 55.189 0.978076 55.189H0.219068ZM0.963901 54.9957C1.18383 54.9957 1.29379 54.884 1.29379 54.6606C1.29379 54.4433 1.14646 54.3346 0.85179 54.3346H0.748699V54.1787C1.10093 54.1314 1.27704 54.0043 1.27704 53.7972C1.27704 53.6254 1.1791 53.5395 0.983231 53.5395H0.457466V54.9957H0.963901ZM2.27666 55.189V53.8359H2.43774L2.48027 54.0086C2.59882 53.8935 2.74143 53.8359 2.90809 53.8359V54.0343C2.74659 54.0343 2.61557 54.0915 2.51506 54.2057V55.189H2.27666ZM3.45283 54.7805C3.45283 54.503 3.63581 54.3642 4.00179 54.3642C4.11948 54.3642 4.23718 54.3728 4.35487 54.39V54.2624C4.35487 54.1069 4.23331 54.0292 3.99019 54.0292C3.85102 54.0292 3.70841 54.0507 3.56236 54.0936V53.9003C3.70841 53.8574 3.85102 53.8359 3.99019 53.8359C4.39224 53.8359 4.59327 53.9759 4.59327 54.256V55.189H4.45925L4.37678 55.0549C4.2419 55.1443 4.095 55.189 3.93607 55.189C3.61391 55.189 3.45283 55.0528 3.45283 54.7805ZM4.00179 54.5575C3.79475 54.5575 3.69123 54.6306 3.69123 54.7766C3.69123 54.9226 3.77284 54.9957 3.93607 54.9957C4.10101 54.9957 4.24062 54.9519 4.35487 54.8642V54.5833C4.23718 54.5661 4.11948 54.5575 4.00179 54.5575ZM5.35063 55.189V53.8359H5.51171L5.55424 54.0086C5.69255 53.8935 5.84461 53.8359 6.01041 53.8359C6.34804 53.8359 6.51685 54.0038 6.51685 54.3398V55.189H6.27845V54.3359C6.27845 54.1349 6.17837 54.0343 5.9782 54.0343C5.8416 54.0343 5.71188 54.0915 5.58903 54.2057V55.189H5.35063ZM8.1827 54.1117C8.08648 54.0653 7.97651 54.0421 7.8528 54.0421C7.58047 54.0421 7.44431 54.1868 7.44431 54.4763C7.44431 54.8191 7.58047 54.9905 7.8528 54.9905C7.97651 54.9905 8.08648 54.9738 8.1827 54.9403V54.1117ZM8.42109 55.1078C8.25701 55.1619 8.05469 55.189 7.81415 55.189C7.41123 55.189 7.20977 54.9544 7.20977 54.4854C7.20977 54.0524 7.42369 53.8359 7.85152 53.8359C7.96835 53.8359 8.07875 53.8574 8.1827 53.9003V53.3462H8.42109V55.1078ZM11.6085 55.1245C11.4495 55.1761 11.2777 55.2019 11.093 55.2019C10.4487 55.2019 10.1265 54.8818 10.1265 54.2418C10.1265 53.6362 10.4487 53.3333 11.093 53.3333C11.2777 53.3333 11.4495 53.3591 11.6085 53.4106V53.6168C11.4495 53.5567 11.2863 53.5266 11.1188 53.5266C10.6162 53.5266 10.3649 53.765 10.3649 54.2418C10.3649 54.753 10.6162 55.0086 11.1188 55.0086C11.2863 55.0086 11.4495 54.9785 11.6085 54.9184V55.1245ZM12.5978 53.3462V55.189H12.3594V53.3462H12.5978ZM13.3036 54.7805C13.3036 54.503 13.4866 54.3642 13.8525 54.3642C13.9702 54.3642 14.0879 54.3728 14.2056 54.39V54.2624C14.2056 54.1069 14.0841 54.0292 13.841 54.0292C13.7018 54.0292 13.5592 54.0507 13.4131 54.0936V53.9003C13.5592 53.8574 13.7018 53.8359 13.841 53.8359C14.243 53.8359 14.444 53.9759 14.444 54.256V55.189H14.31L14.2275 55.0549C14.0927 55.1443 13.9458 55.189 13.7868 55.189C13.4647 55.189 13.3036 55.0528 13.3036 54.7805ZM13.8525 54.5575C13.6455 54.5575 13.542 54.6306 13.542 54.7766C13.542 54.9226 13.6236 54.9957 13.7868 54.9957C13.9518 54.9957 14.0914 54.9519 14.2056 54.8642V54.5833C14.0879 54.5661 13.9702 54.5575 13.8525 54.5575ZM15.2014 55.189V53.8359H15.3625L15.405 54.0086C15.5235 53.8935 15.6662 53.8359 15.8328 53.8359V54.0343C15.6713 54.0343 15.5403 54.0915 15.4398 54.2057V55.189H15.2014ZM16.7062 53.8359V55.189H16.4678V53.8359H16.7062ZM16.7062 53.3462V53.5717H16.4678V53.3462H16.7062ZM17.4893 53.6168H17.6388L17.6903 53.8359H18.0563V54.0292H17.7277V54.8062C17.7277 54.9325 17.7822 54.9957 17.8913 54.9957H18.0563V55.189H17.8295C17.6027 55.189 17.4893 55.0674 17.4893 54.8243V53.6168ZM18.5688 53.8359H18.8278L19.2106 54.8926L19.6062 53.8359H19.8587L19.2969 55.2289C19.1972 55.4746 19.0478 55.628 18.8484 55.689L18.7569 55.5201C18.9081 55.454 19.0181 55.3462 19.0868 55.1967L18.5688 53.8359ZM22.7355 53.3462V53.5395H22.1557V55.189H21.9173V53.5395H21.3374V53.3462H22.7355ZM23.364 55.189V53.3462H23.6024V53.9828C23.7176 53.8849 23.858 53.8359 24.0238 53.8359C24.3614 53.8359 24.5303 54.0038 24.5303 54.3398V55.189H24.2919V54.3359C24.2919 54.1349 24.1918 54.0343 23.9916 54.0343C23.855 54.0343 23.7253 54.0915 23.6024 54.2057V55.189H23.364ZM25.2876 55.189V53.8359H25.4487L25.4912 54.0086C25.6098 53.8935 25.7524 53.8359 25.919 53.8359V54.0343C25.7575 54.0343 25.6265 54.0915 25.526 54.2057V55.189H25.2876ZM26.7022 54.5073C26.7022 54.8329 26.8375 54.9957 27.1081 54.9957C27.3787 54.9957 27.514 54.8329 27.514 54.5073C27.514 54.1886 27.3787 54.0292 27.1081 54.0292C26.8375 54.0292 26.7022 54.1886 26.7022 54.5073ZM26.4638 54.5124C26.4638 54.0614 26.6786 53.8359 27.1081 53.8359C27.5376 53.8359 27.7524 54.0614 27.7524 54.5124C27.7524 54.9626 27.5376 55.1877 27.1081 55.1877C26.6803 55.1877 26.4655 54.9626 26.4638 54.5124ZM29.6103 53.8359V55.189H29.4466L29.4054 55.0163C29.2413 55.1314 29.0763 55.189 28.9105 55.189C28.5995 55.189 28.4441 55.021 28.4441 54.6851V53.8359H28.6825V54.689C28.6825 54.89 28.7821 54.9905 28.9814 54.9905C29.118 54.9905 29.2482 54.9334 29.3719 54.8191V53.8359H29.6103ZM31.2723 54.0653C31.1906 54.0447 31.0897 54.0343 30.9694 54.0343C30.6816 54.0343 30.5377 54.1903 30.5377 54.5021C30.5377 54.8226 30.6739 54.9828 30.9462 54.9828C31.0699 54.9828 31.1786 54.9596 31.2723 54.9132V54.0653ZM31.5106 55.189C31.5106 55.5154 31.3032 55.6786 30.8882 55.6786C30.7216 55.6786 30.5738 55.6572 30.4449 55.6142V55.4209C30.5764 55.4639 30.725 55.4854 30.8908 55.4854C31.1451 55.4854 31.2723 55.3866 31.2723 55.189V55.1245C31.1709 55.1675 31.0618 55.189 30.9449 55.189C30.5171 55.189 30.3032 54.9609 30.3032 54.5047C30.3032 54.0588 30.5287 53.8359 30.9797 53.8359C31.1627 53.8359 31.3397 53.8544 31.5106 53.8913V55.189ZM32.268 55.189V53.3462H32.5064V53.9828C32.6215 53.8849 32.762 53.8359 32.9278 53.8359C33.2654 53.8359 33.4342 54.0038 33.4342 54.3398V55.189H33.1958V54.3359C33.1958 54.1349 33.0957 54.0343 32.8956 54.0343C32.759 54.0343 32.6293 54.0915 32.5064 54.2057V55.189H32.268ZM35.2917 55.189H35.0443L35.8265 53.3462H36.0907L36.8767 55.189H36.6126L36.3742 54.6091H35.7646L35.8304 54.4158H36.2943L35.9502 53.5807L35.2917 55.189ZM37.7746 53.3462V55.189H37.5362V53.3462H37.7746ZM39.6359 55.189V53.3462H40.422C40.7725 53.3462 40.9478 53.4893 40.9478 53.7753C40.9478 53.9849 40.8335 54.1349 40.605 54.2251C40.849 54.2706 40.971 54.4102 40.971 54.6439C40.971 55.0073 40.7789 55.189 40.3949 55.189H39.6359ZM40.3808 54.9957C40.6007 54.9957 40.7106 54.884 40.7106 54.6606C40.7106 54.4433 40.5633 54.3346 40.2686 54.3346H40.1656V54.1787C40.5178 54.1314 40.6939 54.0043 40.6939 53.7972C40.6939 53.6254 40.596 53.5395 40.4001 53.5395H39.8743V54.9957H40.3808ZM41.6935 55.189V53.8359H41.8546L41.8971 54.0086C42.0157 53.8935 42.1583 53.8359 42.3249 53.8359V54.0343C42.1634 54.0343 42.0324 54.0915 41.9319 54.2057V55.189H41.6935ZM43.1983 53.8359V55.189H42.9599V53.8359H43.1983ZM43.1983 53.3462V53.5717H42.9599V53.3462H43.1983ZM44.2327 53.3462V55.189H43.9943V53.3462H44.2327ZM45.2542 53.3462V55.189H45.0158V53.3462H45.2542ZM46.2886 53.8359V55.189H46.0502V53.8359H46.2886ZM46.2886 53.3462V53.5717H46.0502V53.3462H46.2886ZM47.0073 54.7805C47.0073 54.503 47.1903 54.3642 47.5563 54.3642C47.674 54.3642 47.7917 54.3728 47.9094 54.39V54.2624C47.9094 54.1069 47.7878 54.0292 47.5447 54.0292C47.4055 54.0292 47.2629 54.0507 47.1169 54.0936V53.9003C47.2629 53.8574 47.4055 53.8359 47.5447 53.8359C47.9468 53.8359 48.1478 53.9759 48.1478 54.256V55.189H48.0138L47.9313 55.0549C47.7964 55.1443 47.6495 55.189 47.4906 55.189C47.1684 55.189 47.0073 55.0528 47.0073 54.7805ZM47.5563 54.5575C47.3493 54.5575 47.2457 54.6306 47.2457 54.7766C47.2457 54.9226 47.3274 54.9957 47.4906 54.9957C47.6555 54.9957 47.7951 54.9519 47.9094 54.8642V54.5833C47.7917 54.5661 47.674 54.5575 47.5563 54.5575ZM48.9051 55.189V53.8359H49.0662L49.1088 54.0086C49.2471 53.8935 49.3991 53.8359 49.5649 53.8359C49.9026 53.8359 50.0714 54.0038 50.0714 54.3398V55.189H49.833V54.3359C49.833 54.1349 49.7329 54.0343 49.5327 54.0343C49.3961 54.0343 49.2664 54.0915 49.1435 54.2057V55.189H48.9051ZM51.8467 55.1503C51.7351 55.1761 51.6148 55.189 51.4859 55.189C51.0048 55.189 50.7643 54.9549 50.7643 54.4867C50.7643 54.0528 51.0048 53.8359 51.4859 53.8359C51.6148 53.8359 51.7351 53.8488 51.8467 53.8746V54.0678C51.7351 54.0421 51.6105 54.0292 51.473 54.0292C51.1595 54.0292 51.0027 54.1817 51.0027 54.4867C51.0027 54.826 51.1595 54.9957 51.473 54.9957C51.6105 54.9957 51.7351 54.9828 51.8467 54.957V55.1503ZM53.0783 53.8359C53.4632 53.8359 53.6556 54.0262 53.6556 54.4068C53.6556 54.4609 53.6518 54.5189 53.644 54.5807H52.6943C52.6943 54.8574 52.8558 54.9957 53.1788 54.9957C53.3326 54.9957 53.4692 54.9785 53.5886 54.9441V55.1374C53.4692 55.1718 53.324 55.189 53.1531 55.189C52.6883 55.189 52.4559 54.9583 52.4559 54.497C52.4559 54.0563 52.6634 53.8359 53.0783 53.8359ZM52.6943 54.3823H53.4263C53.4211 54.1452 53.3051 54.0266 53.0783 54.0266C52.8378 54.0266 52.7098 54.1452 52.6943 54.3823Z" fill="black"/>
</svg>
