<svg width="32" height="32" viewBox="0 0 32 32" fill="none" xmlns="http://www.w3.org/2000/svg">
<rect width="32" height="32" rx="16" fill="#084CAF"/>
<path d="M16.7196 9C17.5071 9.0021 17.9067 9.0063 18.2518 9.0161L18.3876 9.021C18.5444 9.0266 18.6991 9.0336 18.886 9.042C19.6308 9.077 20.1389 9.19459 20.5848 9.36748C21.0468 9.54527 21.436 9.78606 21.8251 10.1745C22.1811 10.5244 22.4565 10.9477 22.6322 11.4149C22.8051 11.8608 22.9227 12.3689 22.9577 13.1144C22.9661 13.3006 22.9731 13.4553 22.9787 13.6128L22.9829 13.7486C22.9934 14.0929 22.9976 14.4926 22.999 15.2801L22.9997 15.8023V16.7192C23.0014 17.2298 22.996 17.7403 22.9836 18.2507L22.9794 18.3865C22.9738 18.544 22.9668 18.6987 22.9584 18.8849C22.9234 19.6304 22.8044 20.1378 22.6322 20.5844C22.457 21.0518 22.1815 21.4752 21.8251 21.8247C21.4751 22.1805 21.0519 22.4559 20.5848 22.6318C20.1389 22.8047 19.6308 22.9223 18.886 22.9573C18.7199 22.9651 18.5538 22.9721 18.3876 22.9783L18.2518 22.9825C17.9067 22.9923 17.5071 22.9972 16.7196 22.9986L16.1974 22.9993H15.2812C14.7704 23.001 14.2596 22.9957 13.749 22.9832L13.6132 22.979C13.447 22.9727 13.2809 22.9655 13.1148 22.9573C12.37 22.9223 11.8619 22.8047 11.4153 22.6318C10.9482 22.4564 10.5251 22.1809 10.1756 21.8247C9.81939 21.475 9.54373 21.0517 9.36789 20.5844C9.19499 20.1385 9.0774 19.6304 9.0424 18.8849C9.0346 18.7188 9.0276 18.5527 9.0214 18.3865L9.0179 18.2507C9.005 17.7403 8.99917 17.2298 9.0004 16.7192V15.2801C8.99845 14.7695 9.00358 14.259 9.0158 13.7486L9.0207 13.6128C9.0263 13.4553 9.0333 13.3006 9.0417 13.1144C9.0767 12.3689 9.19429 11.8615 9.36719 11.4149C9.54296 10.9472 9.81917 10.5238 10.1763 10.1745C10.5257 9.81859 10.9485 9.54316 11.4153 9.36748C11.8619 9.19459 12.3693 9.077 13.1148 9.042C13.301 9.0336 13.4564 9.0266 13.6132 9.021L13.749 9.0168C14.2594 9.00436 14.7699 8.999 15.2805 9.0007L16.7196 9ZM16 12.4998C15.0718 12.4998 14.1816 12.8686 13.5253 13.5249C12.869 14.1812 12.5002 15.0714 12.5002 15.9996C12.5002 16.9279 12.869 17.818 13.5253 18.4744C14.1816 19.1307 15.0718 19.4995 16 19.4995C16.9283 19.4995 17.8184 19.1307 18.4748 18.4744C19.1311 17.818 19.4999 16.9279 19.4999 15.9996C19.4999 15.0714 19.1311 14.1812 18.4748 13.5249C17.8184 12.8686 16.9283 12.4998 16 12.4998ZM16 13.8997C16.2758 13.8997 16.5489 13.954 16.8037 14.0595C17.0585 14.1649 17.29 14.3196 17.485 14.5145C17.68 14.7095 17.8347 14.941 17.9403 15.1957C18.0459 15.4505 18.1002 15.7235 18.1003 15.9993C18.1003 16.2751 18.0461 16.5481 17.9406 16.8029C17.8351 17.0577 17.6805 17.2892 17.4855 17.4842C17.2905 17.6793 17.0591 17.834 16.8043 17.9396C16.5496 18.0451 16.2765 18.0995 16.0007 18.0995C15.4438 18.0995 14.9097 17.8783 14.5159 17.4845C14.1221 17.0907 13.9009 16.5566 13.9009 15.9996C13.9009 15.4427 14.1221 14.9086 14.5159 14.5148C14.9097 14.121 15.4438 13.8997 16.0007 13.8997M19.6756 11.4499C19.4435 11.4499 19.221 11.5421 19.0569 11.7061C18.8928 11.8702 18.8006 12.0928 18.8006 12.3248C18.8006 12.5569 18.8928 12.7794 19.0569 12.9435C19.221 13.1076 19.4435 13.1998 19.6756 13.1998C19.9076 13.1998 20.1302 13.1076 20.2942 12.9435C20.4583 12.7794 20.5505 12.5569 20.5505 12.3248C20.5505 12.0928 20.4583 11.8702 20.2942 11.7061C20.1302 11.5421 19.9076 11.4499 19.6756 11.4499Z" fill="white"/>
</svg>
