<svg width="126" height="24" viewBox="0 0 126 24" fill="none" xmlns="http://www.w3.org/2000/svg">
<path d="M18.125 14.4996L13.3669 13.9488L11.0918 16.224C8.52871 14.9205 6.44545 12.8373 5.14193 10.2742L7.42615 7.98999L6.87541 3.25H1.90068C1.37702 12.4411 8.93392 19.998 18.125 19.4743V14.4996Z" fill="#084CAF"/>
<path d="M34.864 14.896C34.9707 15.504 35.216 15.9733 35.6 16.304C35.9947 16.6347 36.5227 16.8 37.184 16.8C38.0693 16.8 38.72 16.4533 39.136 15.76C39.5627 15.0667 39.7653 13.8987 39.744 12.256C39.52 12.736 39.1467 13.1147 38.624 13.392C38.1013 13.6587 37.52 13.792 36.88 13.792C36.1653 13.792 35.5253 13.648 34.96 13.36C34.4053 13.0613 33.968 12.6293 33.648 12.064C33.328 11.4987 33.168 10.816 33.168 10.016C33.168 8.87467 33.4987 7.95733 34.16 7.264C34.8213 6.56 35.76 6.208 36.976 6.208C38.4693 6.208 39.5147 6.69333 40.112 7.664C40.72 8.63467 41.024 10.08 41.024 12C41.024 13.344 40.9013 14.4533 40.656 15.328C40.4213 16.2027 40.016 16.8693 39.44 17.328C38.8747 17.7867 38.096 18.016 37.104 18.016C36.016 18.016 35.168 17.7227 34.56 17.136C33.952 16.5493 33.6053 15.8027 33.52 14.896H34.864ZM37.12 12.56C37.8347 12.56 38.4213 12.3413 38.88 11.904C39.3387 11.456 39.568 10.8533 39.568 10.096C39.568 9.296 39.344 8.65067 38.896 8.16C38.448 7.66933 37.8187 7.424 37.008 7.424C36.2613 7.424 35.664 7.65867 35.216 8.128C34.7787 8.59733 34.56 9.216 34.56 9.984C34.56 10.7627 34.7787 11.3867 35.216 11.856C35.6533 12.3253 36.288 12.56 37.12 12.56ZM50.1901 7.568L45.7421 18H44.2701L48.7821 7.712H42.6061V6.464H50.1901V7.568ZM51.6285 16.832C52.9832 15.744 54.0445 14.8533 54.8125 14.16C55.5805 13.456 56.2258 12.7253 56.7485 11.968C57.2818 11.2 57.5485 10.448 57.5485 9.712C57.5485 9.01867 57.3778 8.47467 57.0365 8.08C56.7058 7.67467 56.1672 7.472 55.4205 7.472C54.6952 7.472 54.1298 7.70133 53.7245 8.16C53.3298 8.608 53.1165 9.21067 53.0845 9.968H51.6765C51.7192 8.77333 52.0818 7.85067 52.7645 7.2C53.4472 6.54933 54.3272 6.224 55.4045 6.224C56.5032 6.224 57.3725 6.528 58.0125 7.136C58.6632 7.744 58.9885 8.58133 58.9885 9.648C58.9885 10.5333 58.7218 11.3973 58.1885 12.24C57.6658 13.072 57.0685 13.808 56.3965 14.448C55.7245 15.0773 54.8658 15.8133 53.8205 16.656H59.3245V17.872H51.6285V16.832ZM61.7116 18.096C61.4343 18.096 61.1996 18 61.0076 17.808C60.8156 17.616 60.7196 17.3813 60.7196 17.104C60.7196 16.8267 60.8156 16.592 61.0076 16.4C61.1996 16.208 61.4343 16.112 61.7116 16.112C61.9783 16.112 62.2023 16.208 62.3836 16.4C62.5756 16.592 62.6716 16.8267 62.6716 17.104C62.6716 17.3813 62.5756 17.616 62.3836 17.808C62.2023 18 61.9783 18.096 61.7116 18.096ZM64.191 16.832C65.5457 15.744 66.607 14.8533 67.375 14.16C68.143 13.456 68.7883 12.7253 69.311 11.968C69.8443 11.2 70.111 10.448 70.111 9.712C70.111 9.01867 69.9403 8.47467 69.599 8.08C69.2683 7.67467 68.7297 7.472 67.983 7.472C67.2577 7.472 66.6923 7.70133 66.287 8.16C65.8923 8.608 65.679 9.21067 65.647 9.968H64.239C64.2817 8.77333 64.6443 7.85067 65.327 7.2C66.0097 6.54933 66.8897 6.224 67.967 6.224C69.0657 6.224 69.935 6.528 70.575 7.136C71.2257 7.744 71.551 8.58133 71.551 9.648C71.551 10.5333 71.2843 11.3973 70.751 12.24C70.2283 13.072 69.631 13.808 68.959 14.448C68.287 15.0773 67.4283 15.8133 66.383 16.656H71.887V17.872H64.191V16.832ZM73.1861 7.76V6.432H76.1941V18H74.7221V7.76H73.1861ZM86.0711 7.696H80.4551V11.344C80.7005 11.0027 81.0631 10.7253 81.5431 10.512C82.0231 10.288 82.5405 10.176 83.0951 10.176C83.9805 10.176 84.7005 10.3627 85.2551 10.736C85.8098 11.0987 86.2045 11.5733 86.4391 12.16C86.6845 12.736 86.8071 13.3493 86.8071 14C86.8071 14.768 86.6631 15.456 86.3751 16.064C86.0871 16.672 85.6445 17.152 85.0471 17.504C84.4605 17.856 83.7298 18.032 82.8551 18.032C81.7351 18.032 80.8285 17.744 80.1351 17.168C79.4418 16.592 79.0205 15.824 78.8711 14.864H80.2951C80.4338 15.472 80.7271 15.9467 81.1751 16.288C81.6231 16.6293 82.1885 16.8 82.8711 16.8C83.7138 16.8 84.3485 16.5493 84.7751 16.048C85.2018 15.536 85.4151 14.864 85.4151 14.032C85.4151 13.2 85.2018 12.56 84.7751 12.112C84.3485 11.6533 83.7191 11.424 82.8871 11.424C82.3218 11.424 81.8258 11.5627 81.3991 11.84C80.9831 12.1067 80.6791 12.4747 80.4871 12.944H79.1111V6.416H86.0711V7.696ZM89.446 18.096C89.1687 18.096 88.934 18 88.742 17.808C88.55 17.616 88.454 17.3813 88.454 17.104C88.454 16.8267 88.55 16.592 88.742 16.4C88.934 16.208 89.1687 16.112 89.446 16.112C89.7127 16.112 89.9367 16.208 90.118 16.4C90.31 16.592 90.406 16.8267 90.406 17.104C90.406 17.3813 90.31 17.616 90.118 17.808C89.9367 18 89.7127 18.096 89.446 18.096ZM94.2134 11.984C93.616 11.7493 93.1574 11.408 92.8374 10.96C92.5174 10.512 92.3574 9.968 92.3574 9.328C92.3574 8.752 92.5014 8.23467 92.7894 7.776C93.0774 7.30667 93.504 6.93867 94.0694 6.672C94.6454 6.39467 95.3387 6.256 96.1494 6.256C96.96 6.256 97.648 6.39467 98.2134 6.672C98.7894 6.93867 99.2214 7.30667 99.5094 7.776C99.808 8.23467 99.9574 8.752 99.9574 9.328C99.9574 9.94667 99.792 10.4907 99.4614 10.96C99.1307 11.4187 98.6774 11.76 98.1014 11.984C98.7627 12.1867 99.2854 12.544 99.6694 13.056C100.064 13.5573 100.261 14.1653 100.261 14.88C100.261 15.5733 100.091 16.1813 99.7494 16.704C99.408 17.216 98.9227 17.616 98.2934 17.904C97.6747 18.1813 96.96 18.32 96.1494 18.32C95.3387 18.32 94.624 18.1813 94.0054 17.904C93.3974 17.616 92.9227 17.216 92.5814 16.704C92.24 16.1813 92.0694 15.5733 92.0694 14.88C92.0694 14.1653 92.2614 13.552 92.6454 13.04C93.0294 12.528 93.552 12.176 94.2134 11.984ZM98.5494 9.504C98.5494 8.85333 98.336 8.352 97.9094 8C97.4827 7.648 96.896 7.472 96.1494 7.472C95.4134 7.472 94.832 7.648 94.4054 8C93.9787 8.352 93.7654 8.85867 93.7654 9.52C93.7654 10.1173 93.984 10.5973 94.4214 10.96C94.8694 11.3227 95.4454 11.504 96.1494 11.504C96.864 11.504 97.44 11.3227 97.8774 10.96C98.3254 10.5867 98.5494 10.1013 98.5494 9.504ZM96.1494 12.624C95.36 12.624 94.7147 12.8107 94.2134 13.184C93.712 13.5467 93.4614 14.096 93.4614 14.832C93.4614 15.5147 93.7014 16.064 94.1814 16.48C94.672 16.896 95.328 17.104 96.1494 17.104C96.9707 17.104 97.6214 16.896 98.1014 16.48C98.5814 16.064 98.8214 15.5147 98.8214 14.832C98.8214 14.1173 98.576 13.5733 98.0854 13.2C97.5947 12.816 96.9494 12.624 96.1494 12.624ZM102.019 16.832C103.374 15.744 104.435 14.8533 105.203 14.16C105.971 13.456 106.616 12.7253 107.139 11.968C107.672 11.2 107.939 10.448 107.939 9.712C107.939 9.01867 107.768 8.47467 107.427 8.08C107.096 7.67467 106.558 7.472 105.811 7.472C105.086 7.472 104.52 7.70133 104.115 8.16C103.72 8.608 103.507 9.21067 103.475 9.968H102.067C102.11 8.77333 102.472 7.85067 103.155 7.2C103.838 6.54933 104.718 6.224 105.795 6.224C106.894 6.224 107.763 6.528 108.403 7.136C109.054 7.744 109.379 8.58133 109.379 9.648C109.379 10.5333 109.112 11.3973 108.579 12.24C108.056 13.072 107.459 13.808 106.787 14.448C106.115 15.0773 105.256 15.8133 104.211 16.656H109.715V17.872H102.019V16.832ZM111.014 7.76V6.432H114.022V18H112.55V7.76H111.014ZM116.171 15.424V14.32L121.787 6.544H123.531V14.16H125.131V15.424H123.531V18H122.091V15.424H116.171ZM122.155 8.064L117.851 14.16H122.155V8.064Z" fill="#084CAF"/>
</svg>
