<svg width="30" height="30" viewBox="0 0 30 30" fill="none" xmlns="http://www.w3.org/2000/svg">
<mask id="path-1-outside-1_353_18144" maskUnits="userSpaceOnUse" x="1.37305" y="0.802734" width="24" height="28" fill="black">
<rect fill="#084CAF" x="1.37305" y="0.802734" width="24" height="28"/>
<path d="M5.93555 2.25586C5.83008 2.30273 5.68945 2.42578 5.625 2.53125C5.51953 2.70703 5.50781 2.82422 5.50781 3.99609V5.26758L4.20703 5.28516C3.04102 5.30273 2.88281 5.31445 2.73633 5.41406C2.41406 5.63672 2.37305 5.78906 2.37305 6.88477C2.37305 7.99805 2.40234 8.09766 2.77148 8.32031C2.94141 8.42578 3.07617 8.4375 4.23633 8.4375H5.50781V9.69727C5.50781 11.0684 5.53125 11.1797 5.83594 11.4199C5.95312 11.5137 6.07617 11.543 6.33398 11.543H6.67383L6.69141 14.6309L6.70898 17.7246L6.89062 18.1113C7.06641 18.4805 7.41797 18.9082 7.73438 19.125L7.88086 19.2246L7.73438 19.3242C7.42969 19.5176 7.07227 19.9512 6.89062 20.3262C6.72656 20.6777 6.70898 20.7656 6.70898 21.2988C6.70898 21.832 6.72656 21.9199 6.89062 22.2715C7.0957 22.7051 7.40625 23.0742 7.7168 23.2676L7.91602 23.3906L7.74609 23.4961C6.86133 24.0352 6.45117 25.3066 6.83789 26.3262C7.05469 26.9121 7.61719 27.4688 8.2207 27.6914C8.51367 27.7969 8.73633 27.8027 15.6445 27.8027H22.7637L23.0859 27.6738C23.7539 27.4043 24.2988 26.7363 24.4688 25.9805C24.5801 25.5059 24.5801 25.4355 24.498 25.0488C24.3691 24.4453 23.9824 23.8594 23.4668 23.4668L23.3496 23.3789L23.4668 23.3145C23.9004 23.0625 24.3574 22.3652 24.4922 21.7383C24.5742 21.3398 24.5801 21.2578 24.498 20.8887C24.3574 20.2559 24 19.6934 23.5254 19.3535L23.3496 19.2246L23.4961 19.125C23.9648 18.8027 24.3633 18.1816 24.4922 17.5781C24.5742 17.1797 24.5742 17.0977 24.4922 16.6992C24.2988 15.7852 23.5723 15 22.7754 14.8535L22.5586 14.8125V12.6328V10.459L20.4609 8.36133L18.3633 6.26953H15.0762H11.7949L11.7598 6C11.7422 5.83594 11.6836 5.67773 11.5957 5.58398C11.332 5.30273 11.1738 5.27344 9.87305 5.27344H8.67188V4.05469C8.67188 2.69531 8.63672 2.54883 8.26758 2.30273C8.08008 2.17383 8.00977 2.16797 7.0957 2.16797C6.39258 2.17383 6.07031 2.19727 5.93555 2.25586ZM8.05078 2.82422C8.12695 2.93555 8.14453 3.18164 8.14453 4.3418C8.14453 5.55469 8.15625 5.73633 8.23828 5.76562C8.29102 5.7832 8.94141 5.80078 9.68555 5.80078C10.8574 5.80078 11.0508 5.8125 11.1445 5.90039C11.2383 5.98242 11.25 6.09375 11.25 6.86133C11.25 7.57031 11.2324 7.74023 11.1562 7.81641C11.0801 7.89844 10.8633 7.91016 9.67383 7.91016C8.67188 7.91016 8.26758 7.92773 8.21484 7.98047C8.16211 8.0332 8.14453 8.43164 8.14453 9.42188C8.14453 10.2539 8.12109 10.834 8.08594 10.9043C8.02734 11.0098 7.95117 11.0156 7.10156 11.0156C6.45703 11.0156 6.15234 10.9922 6.10547 10.9453C6.05273 10.8926 6.03516 10.4883 6.03516 9.48633C6.03516 8.29688 6.02344 8.08008 5.94141 8.00391C5.86523 7.92188 5.64844 7.91016 4.45898 7.91016C3.22852 7.91016 3.05273 7.89844 2.98242 7.81055C2.91797 7.74023 2.90039 7.49414 2.90039 6.84375C2.90039 6.04102 2.91211 5.95898 3.01172 5.88281C3.10547 5.81836 3.41016 5.80078 4.51172 5.80078C5.50781 5.80078 5.91211 5.7832 5.96484 5.73047C6.01758 5.67773 6.03516 5.27344 6.03516 4.27148C6.03516 3.08203 6.04688 2.86523 6.12891 2.78906C6.20508 2.71289 6.375 2.69531 7.08984 2.69531C7.92188 2.69531 7.96875 2.70117 8.05078 2.82422ZM17.9883 8.72461C17.9883 10.4004 18 10.6699 18.082 10.7461C18.1582 10.8281 18.4277 10.8398 20.1035 10.8398H22.0312V12.8027V14.7656H15.4746C11.291 14.7656 8.80664 14.7891 8.60742 14.8242C8.20898 14.9004 7.76953 15.1113 7.45312 15.3809L7.20703 15.5977V13.5703V11.543H7.64648C8.14453 11.543 8.36133 11.4609 8.53125 11.209C8.63086 11.0625 8.64258 10.9043 8.66016 9.73828L8.67773 8.4375H9.9082C11.2852 8.4375 11.4609 8.40234 11.6602 8.07422C11.7539 7.91602 11.7773 7.78125 11.7773 7.33594V6.79688H14.8828H17.9883V8.72461ZM20.0684 8.78906L21.5918 10.3125H20.0508H18.5156V8.78906C18.5156 7.95117 18.5215 7.26562 18.5332 7.26562C18.5391 7.26562 19.2305 7.95117 20.0684 8.78906ZM9.82617 15.5039C10.9043 16.0195 11.1914 17.4492 10.3945 18.334C10.0195 18.75 9.61523 18.9316 9.05859 18.9375C8.67773 18.9434 8.57227 18.9199 8.23828 18.7559C6.71484 18.0059 6.95508 15.7969 8.60156 15.3809C8.9707 15.2871 9.46875 15.3398 9.82617 15.5039ZM22.9688 15.4746C23.1152 15.5391 23.3555 15.7148 23.5078 15.8613C24.4219 16.7637 24.1523 18.2402 22.9688 18.8027L22.6465 18.9551L16.582 18.9727L10.5176 18.9902L10.7578 18.7383C11.5723 17.9004 11.5957 16.4648 10.8105 15.5918L10.5938 15.3516L16.4121 15.334C19.6172 15.3281 22.3418 15.3281 22.4707 15.3398C22.5996 15.3516 22.8223 15.416 22.9688 15.4746ZM9.68555 19.6055C9.83789 19.6582 10.0898 19.8164 10.248 19.957C11.2383 20.8477 10.9805 22.418 9.75586 22.9805C9.35156 23.1621 8.69531 23.168 8.31445 22.9805C7.9043 22.7812 7.58203 22.4707 7.40039 22.1016C7.25977 21.8203 7.23633 21.6973 7.23633 21.2988C7.23633 20.9004 7.26562 20.7832 7.40039 20.5254C7.74609 19.8633 8.29688 19.5117 9 19.5117C9.22852 19.5117 9.5332 19.5527 9.68555 19.6055ZM22.8691 19.6055C23.2441 19.7344 23.6895 20.1445 23.8887 20.5547C24.0176 20.8184 24.0469 20.9648 24.0469 21.2988C24.0469 22.0137 23.6777 22.5996 23.0098 22.957L22.7051 23.1152L16.623 23.1328L10.541 23.1445L10.752 22.9277C11.5664 22.0898 11.5957 20.625 10.8105 19.752L10.5938 19.5117H16.5938C21.9316 19.5117 22.6289 19.5234 22.8691 19.6055ZM9.83203 23.8477C11.2031 24.5391 11.2031 26.3965 9.82617 27.1113C9.56836 27.2461 9.44531 27.2754 9.05273 27.2754C8.66016 27.2754 8.53125 27.252 8.25 27.1113C7.86914 26.9238 7.54102 26.584 7.36523 26.1973C7.26562 25.9922 7.23633 25.8105 7.23633 25.459C7.23633 24.8789 7.40039 24.5273 7.85156 24.123C8.21484 23.7949 8.51953 23.6836 9.05859 23.6777C9.41016 23.6719 9.52734 23.7012 9.83203 23.8477ZM22.8691 23.7656C23.2441 23.8945 23.6895 24.3047 23.8887 24.7148C24.0176 24.9844 24.0469 25.125 24.0469 25.4648C24.0469 25.834 24.0234 25.9395 23.8477 26.2852C23.7012 26.5723 23.5605 26.748 23.3496 26.9062C22.8047 27.3223 23.1387 27.3047 16.541 27.3047H10.6055L10.8457 27C11.1445 26.625 11.291 26.2969 11.3613 25.8398C11.4727 25.166 11.2559 24.4043 10.8105 23.9121L10.5938 23.6719H16.5938C21.9316 23.6719 22.6289 23.6836 22.8691 23.7656Z"/>
</mask>
<path d="M5.93555 2.25586C5.83008 2.30273 5.68945 2.42578 5.625 2.53125C5.51953 2.70703 5.50781 2.82422 5.50781 3.99609V5.26758L4.20703 5.28516C3.04102 5.30273 2.88281 5.31445 2.73633 5.41406C2.41406 5.63672 2.37305 5.78906 2.37305 6.88477C2.37305 7.99805 2.40234 8.09766 2.77148 8.32031C2.94141 8.42578 3.07617 8.4375 4.23633 8.4375H5.50781V9.69727C5.50781 11.0684 5.53125 11.1797 5.83594 11.4199C5.95312 11.5137 6.07617 11.543 6.33398 11.543H6.67383L6.69141 14.6309L6.70898 17.7246L6.89062 18.1113C7.06641 18.4805 7.41797 18.9082 7.73438 19.125L7.88086 19.2246L7.73438 19.3242C7.42969 19.5176 7.07227 19.9512 6.89062 20.3262C6.72656 20.6777 6.70898 20.7656 6.70898 21.2988C6.70898 21.832 6.72656 21.9199 6.89062 22.2715C7.0957 22.7051 7.40625 23.0742 7.7168 23.2676L7.91602 23.3906L7.74609 23.4961C6.86133 24.0352 6.45117 25.3066 6.83789 26.3262C7.05469 26.9121 7.61719 27.4688 8.2207 27.6914C8.51367 27.7969 8.73633 27.8027 15.6445 27.8027H22.7637L23.0859 27.6738C23.7539 27.4043 24.2988 26.7363 24.4688 25.9805C24.5801 25.5059 24.5801 25.4355 24.498 25.0488C24.3691 24.4453 23.9824 23.8594 23.4668 23.4668L23.3496 23.3789L23.4668 23.3145C23.9004 23.0625 24.3574 22.3652 24.4922 21.7383C24.5742 21.3398 24.5801 21.2578 24.498 20.8887C24.3574 20.2559 24 19.6934 23.5254 19.3535L23.3496 19.2246L23.4961 19.125C23.9648 18.8027 24.3633 18.1816 24.4922 17.5781C24.5742 17.1797 24.5742 17.0977 24.4922 16.6992C24.2988 15.7852 23.5723 15 22.7754 14.8535L22.5586 14.8125V12.6328V10.459L20.4609 8.36133L18.3633 6.26953H15.0762H11.7949L11.7598 6C11.7422 5.83594 11.6836 5.67773 11.5957 5.58398C11.332 5.30273 11.1738 5.27344 9.87305 5.27344H8.67188V4.05469C8.67188 2.69531 8.63672 2.54883 8.26758 2.30273C8.08008 2.17383 8.00977 2.16797 7.0957 2.16797C6.39258 2.17383 6.07031 2.19727 5.93555 2.25586ZM8.05078 2.82422C8.12695 2.93555 8.14453 3.18164 8.14453 4.3418C8.14453 5.55469 8.15625 5.73633 8.23828 5.76562C8.29102 5.7832 8.94141 5.80078 9.68555 5.80078C10.8574 5.80078 11.0508 5.8125 11.1445 5.90039C11.2383 5.98242 11.25 6.09375 11.25 6.86133C11.25 7.57031 11.2324 7.74023 11.1562 7.81641C11.0801 7.89844 10.8633 7.91016 9.67383 7.91016C8.67188 7.91016 8.26758 7.92773 8.21484 7.98047C8.16211 8.0332 8.14453 8.43164 8.14453 9.42188C8.14453 10.2539 8.12109 10.834 8.08594 10.9043C8.02734 11.0098 7.95117 11.0156 7.10156 11.0156C6.45703 11.0156 6.15234 10.9922 6.10547 10.9453C6.05273 10.8926 6.03516 10.4883 6.03516 9.48633C6.03516 8.29688 6.02344 8.08008 5.94141 8.00391C5.86523 7.92188 5.64844 7.91016 4.45898 7.91016C3.22852 7.91016 3.05273 7.89844 2.98242 7.81055C2.91797 7.74023 2.90039 7.49414 2.90039 6.84375C2.90039 6.04102 2.91211 5.95898 3.01172 5.88281C3.10547 5.81836 3.41016 5.80078 4.51172 5.80078C5.50781 5.80078 5.91211 5.7832 5.96484 5.73047C6.01758 5.67773 6.03516 5.27344 6.03516 4.27148C6.03516 3.08203 6.04688 2.86523 6.12891 2.78906C6.20508 2.71289 6.375 2.69531 7.08984 2.69531C7.92188 2.69531 7.96875 2.70117 8.05078 2.82422ZM17.9883 8.72461C17.9883 10.4004 18 10.6699 18.082 10.7461C18.1582 10.8281 18.4277 10.8398 20.1035 10.8398H22.0312V12.8027V14.7656H15.4746C11.291 14.7656 8.80664 14.7891 8.60742 14.8242C8.20898 14.9004 7.76953 15.1113 7.45312 15.3809L7.20703 15.5977V13.5703V11.543H7.64648C8.14453 11.543 8.36133 11.4609 8.53125 11.209C8.63086 11.0625 8.64258 10.9043 8.66016 9.73828L8.67773 8.4375H9.9082C11.2852 8.4375 11.4609 8.40234 11.6602 8.07422C11.7539 7.91602 11.7773 7.78125 11.7773 7.33594V6.79688H14.8828H17.9883V8.72461ZM20.0684 8.78906L21.5918 10.3125H20.0508H18.5156V8.78906C18.5156 7.95117 18.5215 7.26562 18.5332 7.26562C18.5391 7.26562 19.2305 7.95117 20.0684 8.78906ZM9.82617 15.5039C10.9043 16.0195 11.1914 17.4492 10.3945 18.334C10.0195 18.75 9.61523 18.9316 9.05859 18.9375C8.67773 18.9434 8.57227 18.9199 8.23828 18.7559C6.71484 18.0059 6.95508 15.7969 8.60156 15.3809C8.9707 15.2871 9.46875 15.3398 9.82617 15.5039ZM22.9688 15.4746C23.1152 15.5391 23.3555 15.7148 23.5078 15.8613C24.4219 16.7637 24.1523 18.2402 22.9688 18.8027L22.6465 18.9551L16.582 18.9727L10.5176 18.9902L10.7578 18.7383C11.5723 17.9004 11.5957 16.4648 10.8105 15.5918L10.5938 15.3516L16.4121 15.334C19.6172 15.3281 22.3418 15.3281 22.4707 15.3398C22.5996 15.3516 22.8223 15.416 22.9688 15.4746ZM9.68555 19.6055C9.83789 19.6582 10.0898 19.8164 10.248 19.957C11.2383 20.8477 10.9805 22.418 9.75586 22.9805C9.35156 23.1621 8.69531 23.168 8.31445 22.9805C7.9043 22.7812 7.58203 22.4707 7.40039 22.1016C7.25977 21.8203 7.23633 21.6973 7.23633 21.2988C7.23633 20.9004 7.26562 20.7832 7.40039 20.5254C7.74609 19.8633 8.29688 19.5117 9 19.5117C9.22852 19.5117 9.5332 19.5527 9.68555 19.6055ZM22.8691 19.6055C23.2441 19.7344 23.6895 20.1445 23.8887 20.5547C24.0176 20.8184 24.0469 20.9648 24.0469 21.2988C24.0469 22.0137 23.6777 22.5996 23.0098 22.957L22.7051 23.1152L16.623 23.1328L10.541 23.1445L10.752 22.9277C11.5664 22.0898 11.5957 20.625 10.8105 19.752L10.5938 19.5117H16.5938C21.9316 19.5117 22.6289 19.5234 22.8691 19.6055ZM9.83203 23.8477C11.2031 24.5391 11.2031 26.3965 9.82617 27.1113C9.56836 27.2461 9.44531 27.2754 9.05273 27.2754C8.66016 27.2754 8.53125 27.252 8.25 27.1113C7.86914 26.9238 7.54102 26.584 7.36523 26.1973C7.26562 25.9922 7.23633 25.8105 7.23633 25.459C7.23633 24.8789 7.40039 24.5273 7.85156 24.123C8.21484 23.7949 8.51953 23.6836 9.05859 23.6777C9.41016 23.6719 9.52734 23.7012 9.83203 23.8477ZM22.8691 23.7656C23.2441 23.8945 23.6895 24.3047 23.8887 24.7148C24.0176 24.9844 24.0469 25.125 24.0469 25.4648C24.0469 25.834 24.0234 25.9395 23.8477 26.2852C23.7012 26.5723 23.5605 26.748 23.3496 26.9062C22.8047 27.3223 23.1387 27.3047 16.541 27.3047H10.6055L10.8457 27C11.1445 26.625 11.291 26.2969 11.3613 25.8398C11.4727 25.166 11.2559 24.4043 10.8105 23.9121L10.5938 23.6719H16.5938C21.9316 23.6719 22.6289 23.6836 22.8691 23.7656Z" fill="#084CAF"/>
<path d="M5.93555 2.25586C5.83008 2.30273 5.68945 2.42578 5.625 2.53125C5.51953 2.70703 5.50781 2.82422 5.50781 3.99609V5.26758L4.20703 5.28516C3.04102 5.30273 2.88281 5.31445 2.73633 5.41406C2.41406 5.63672 2.37305 5.78906 2.37305 6.88477C2.37305 7.99805 2.40234 8.09766 2.77148 8.32031C2.94141 8.42578 3.07617 8.4375 4.23633 8.4375H5.50781V9.69727C5.50781 11.0684 5.53125 11.1797 5.83594 11.4199C5.95312 11.5137 6.07617 11.543 6.33398 11.543H6.67383L6.69141 14.6309L6.70898 17.7246L6.89062 18.1113C7.06641 18.4805 7.41797 18.9082 7.73438 19.125L7.88086 19.2246L7.73438 19.3242C7.42969 19.5176 7.07227 19.9512 6.89062 20.3262C6.72656 20.6777 6.70898 20.7656 6.70898 21.2988C6.70898 21.832 6.72656 21.9199 6.89062 22.2715C7.0957 22.7051 7.40625 23.0742 7.7168 23.2676L7.91602 23.3906L7.74609 23.4961C6.86133 24.0352 6.45117 25.3066 6.83789 26.3262C7.05469 26.9121 7.61719 27.4688 8.2207 27.6914C8.51367 27.7969 8.73633 27.8027 15.6445 27.8027H22.7637L23.0859 27.6738C23.7539 27.4043 24.2988 26.7363 24.4688 25.9805C24.5801 25.5059 24.5801 25.4355 24.498 25.0488C24.3691 24.4453 23.9824 23.8594 23.4668 23.4668L23.3496 23.3789L23.4668 23.3145C23.9004 23.0625 24.3574 22.3652 24.4922 21.7383C24.5742 21.3398 24.5801 21.2578 24.498 20.8887C24.3574 20.2559 24 19.6934 23.5254 19.3535L23.3496 19.2246L23.4961 19.125C23.9648 18.8027 24.3633 18.1816 24.4922 17.5781C24.5742 17.1797 24.5742 17.0977 24.4922 16.6992C24.2988 15.7852 23.5723 15 22.7754 14.8535L22.5586 14.8125V12.6328V10.459L20.4609 8.36133L18.3633 6.26953H15.0762H11.7949L11.7598 6C11.7422 5.83594 11.6836 5.67773 11.5957 5.58398C11.332 5.30273 11.1738 5.27344 9.87305 5.27344H8.67188V4.05469C8.67188 2.69531 8.63672 2.54883 8.26758 2.30273C8.08008 2.17383 8.00977 2.16797 7.0957 2.16797C6.39258 2.17383 6.07031 2.19727 5.93555 2.25586ZM8.05078 2.82422C8.12695 2.93555 8.14453 3.18164 8.14453 4.3418C8.14453 5.55469 8.15625 5.73633 8.23828 5.76562C8.29102 5.7832 8.94141 5.80078 9.68555 5.80078C10.8574 5.80078 11.0508 5.8125 11.1445 5.90039C11.2383 5.98242 11.25 6.09375 11.25 6.86133C11.25 7.57031 11.2324 7.74023 11.1562 7.81641C11.0801 7.89844 10.8633 7.91016 9.67383 7.91016C8.67188 7.91016 8.26758 7.92773 8.21484 7.98047C8.16211 8.0332 8.14453 8.43164 8.14453 9.42188C8.14453 10.2539 8.12109 10.834 8.08594 10.9043C8.02734 11.0098 7.95117 11.0156 7.10156 11.0156C6.45703 11.0156 6.15234 10.9922 6.10547 10.9453C6.05273 10.8926 6.03516 10.4883 6.03516 9.48633C6.03516 8.29688 6.02344 8.08008 5.94141 8.00391C5.86523 7.92188 5.64844 7.91016 4.45898 7.91016C3.22852 7.91016 3.05273 7.89844 2.98242 7.81055C2.91797 7.74023 2.90039 7.49414 2.90039 6.84375C2.90039 6.04102 2.91211 5.95898 3.01172 5.88281C3.10547 5.81836 3.41016 5.80078 4.51172 5.80078C5.50781 5.80078 5.91211 5.7832 5.96484 5.73047C6.01758 5.67773 6.03516 5.27344 6.03516 4.27148C6.03516 3.08203 6.04688 2.86523 6.12891 2.78906C6.20508 2.71289 6.375 2.69531 7.08984 2.69531C7.92188 2.69531 7.96875 2.70117 8.05078 2.82422ZM17.9883 8.72461C17.9883 10.4004 18 10.6699 18.082 10.7461C18.1582 10.8281 18.4277 10.8398 20.1035 10.8398H22.0312V12.8027V14.7656H15.4746C11.291 14.7656 8.80664 14.7891 8.60742 14.8242C8.20898 14.9004 7.76953 15.1113 7.45312 15.3809L7.20703 15.5977V13.5703V11.543H7.64648C8.14453 11.543 8.36133 11.4609 8.53125 11.209C8.63086 11.0625 8.64258 10.9043 8.66016 9.73828L8.67773 8.4375H9.9082C11.2852 8.4375 11.4609 8.40234 11.6602 8.07422C11.7539 7.91602 11.7773 7.78125 11.7773 7.33594V6.79688H14.8828H17.9883V8.72461ZM20.0684 8.78906L21.5918 10.3125H20.0508H18.5156V8.78906C18.5156 7.95117 18.5215 7.26562 18.5332 7.26562C18.5391 7.26562 19.2305 7.95117 20.0684 8.78906ZM9.82617 15.5039C10.9043 16.0195 11.1914 17.4492 10.3945 18.334C10.0195 18.75 9.61523 18.9316 9.05859 18.9375C8.67773 18.9434 8.57227 18.9199 8.23828 18.7559C6.71484 18.0059 6.95508 15.7969 8.60156 15.3809C8.9707 15.2871 9.46875 15.3398 9.82617 15.5039ZM22.9688 15.4746C23.1152 15.5391 23.3555 15.7148 23.5078 15.8613C24.4219 16.7637 24.1523 18.2402 22.9688 18.8027L22.6465 18.9551L16.582 18.9727L10.5176 18.9902L10.7578 18.7383C11.5723 17.9004 11.5957 16.4648 10.8105 15.5918L10.5938 15.3516L16.4121 15.334C19.6172 15.3281 22.3418 15.3281 22.4707 15.3398C22.5996 15.3516 22.8223 15.416 22.9688 15.4746ZM9.68555 19.6055C9.83789 19.6582 10.0898 19.8164 10.248 19.957C11.2383 20.8477 10.9805 22.418 9.75586 22.9805C9.35156 23.1621 8.69531 23.168 8.31445 22.9805C7.9043 22.7812 7.58203 22.4707 7.40039 22.1016C7.25977 21.8203 7.23633 21.6973 7.23633 21.2988C7.23633 20.9004 7.26562 20.7832 7.40039 20.5254C7.74609 19.8633 8.29688 19.5117 9 19.5117C9.22852 19.5117 9.5332 19.5527 9.68555 19.6055ZM22.8691 19.6055C23.2441 19.7344 23.6895 20.1445 23.8887 20.5547C24.0176 20.8184 24.0469 20.9648 24.0469 21.2988C24.0469 22.0137 23.6777 22.5996 23.0098 22.957L22.7051 23.1152L16.623 23.1328L10.541 23.1445L10.752 22.9277C11.5664 22.0898 11.5957 20.625 10.8105 19.752L10.5938 19.5117H16.5938C21.9316 19.5117 22.6289 19.5234 22.8691 19.6055ZM9.83203 23.8477C11.2031 24.5391 11.2031 26.3965 9.82617 27.1113C9.56836 27.2461 9.44531 27.2754 9.05273 27.2754C8.66016 27.2754 8.53125 27.252 8.25 27.1113C7.86914 26.9238 7.54102 26.584 7.36523 26.1973C7.26562 25.9922 7.23633 25.8105 7.23633 25.459C7.23633 24.8789 7.40039 24.5273 7.85156 24.123C8.21484 23.7949 8.51953 23.6836 9.05859 23.6777C9.41016 23.6719 9.52734 23.7012 9.83203 23.8477ZM22.8691 23.7656C23.2441 23.8945 23.6895 24.3047 23.8887 24.7148C24.0176 24.9844 24.0469 25.125 24.0469 25.4648C24.0469 25.834 24.0234 25.9395 23.8477 26.2852C23.7012 26.5723 23.5605 26.748 23.3496 26.9062C22.8047 27.3223 23.1387 27.3047 16.541 27.3047H10.6055L10.8457 27C11.1445 26.625 11.291 26.2969 11.3613 25.8398C11.4727 25.166 11.2559 24.4043 10.8105 23.9121L10.5938 23.6719H16.5938C21.9316 23.6719 22.6289 23.6836 22.8691 23.7656Z" stroke="#084CAF" mask="url(#path-1-outside-1_353_18144)"/>
<path d="M16.6523 4.57031C16.5234 4.62305 16.4062 4.83984 16.4062 5.01562C16.4062 5.16211 16.6816 5.39062 16.8633 5.39062C17.0742 5.39062 17.2852 5.17383 17.2852 4.95703C17.2852 4.77539 17.0508 4.51172 16.8926 4.51758C16.834 4.51758 16.7285 4.54102 16.6523 4.57031Z" fill="#084CAF"/>
<path d="M24.4978 12.1992C24.4392 12.3691 24.4744 12.5039 24.615 12.6328C24.7263 12.7324 24.7263 12.7383 24.6033 12.8672C24.4627 13.0195 24.4392 13.2891 24.5564 13.3652C24.6853 13.4473 24.8142 13.4238 24.9783 13.2949L25.1306 13.1777L25.3064 13.3066C25.5584 13.4941 25.781 13.4238 25.781 13.1602C25.781 13.043 25.7341 12.9258 25.6638 12.8613C25.5525 12.7617 25.5525 12.7559 25.6638 12.6094C25.7283 12.5332 25.781 12.3867 25.781 12.2988C25.781 12.0645 25.5466 12.0059 25.3064 12.1816L25.1306 12.3105L24.9783 12.1934C24.7732 12.0293 24.5623 12.0352 24.4978 12.1992Z" fill="#084CAF"/>
<path d="M4.38336 15.7324C4.32477 15.8613 4.33649 15.9023 4.48297 16.0546L4.64703 16.2245L4.48883 16.4062C4.31305 16.6171 4.30133 16.7109 4.43024 16.8398C4.55914 16.9687 4.65289 16.957 4.86383 16.7812L5.04547 16.623L5.17438 16.7402C5.3736 16.9218 5.43805 16.9453 5.56696 16.8749C5.72516 16.7929 5.7193 16.541 5.55524 16.3652L5.43219 16.2304L5.5611 16.0898C5.75446 15.8847 5.71344 15.621 5.48492 15.5976C5.3736 15.5859 5.27399 15.621 5.18024 15.7089L5.03961 15.8378L4.90485 15.7148C4.71735 15.5331 4.47125 15.5449 4.38336 15.7324Z" fill="#084CAF"/>
<path d="M26.3739 20.4434C26.2567 20.5195 26.2801 20.7891 26.4207 20.9355L26.5438 21.0703L26.4207 21.1934C26.2801 21.334 26.2567 21.6094 26.3739 21.6855C26.5028 21.7676 26.6317 21.7441 26.8016 21.6152L26.9539 21.498L27.1063 21.6152C27.2762 21.7441 27.4051 21.7676 27.534 21.6855C27.6512 21.6094 27.6278 21.3398 27.4871 21.1934L27.3641 21.0586L27.4871 20.9355C27.6278 20.7949 27.6512 20.5195 27.534 20.4434C27.4051 20.3613 27.2762 20.3848 27.1063 20.5137L26.9539 20.6309L26.8016 20.5137C26.6317 20.3848 26.5028 20.3613 26.3739 20.4434Z" fill="#084CAF"/>
<path d="M6.15194 23.0449C6.06991 23.0859 5.98788 23.2031 5.95272 23.3086C5.83553 23.7187 6.3453 24.0176 6.65585 23.7246C7.01327 23.3906 6.59139 22.8164 6.15194 23.0449Z" fill="#084CAF"/>
</svg>
