<svg width="30" height="30" viewBox="0 0 30 30" fill="none" xmlns="http://www.w3.org/2000/svg">
<path d="M6.29254 1.53516C6.10504 1.65234 2.7066 4.86328 2.67145 4.96289C2.61285 5.10352 2.63629 5.35547 2.71246 5.45508C2.85309 5.64258 3.04059 5.68359 3.68512 5.68359H4.33551V7.52344V9.36328L3.73199 9.38672C3.19293 9.4043 3.08746 9.42773 2.74176 9.59766C2.29059 9.82031 1.98004 10.1367 1.76324 10.5996L1.6109 10.9277L1.59332 18.832C1.57574 27.5391 1.55817 27.041 1.93902 27.6211C2.18512 27.9902 2.57184 28.2715 3.04059 28.418C3.40387 28.5352 3.56207 28.5352 14.9996 28.5352C26.4371 28.5352 26.5953 28.5352 26.9586 28.418C27.4273 28.2715 27.814 27.9902 28.0601 27.6211C28.441 27.041 28.4234 27.5391 28.4058 18.832L28.3882 10.9277L28.1949 10.5352C27.9722 10.084 27.6558 9.77344 27.1929 9.5625C26.9234 9.43359 26.7535 9.4043 26.2672 9.38672L25.6636 9.36328V7.52344V5.68359H26.314C26.9586 5.68359 27.1461 5.64258 27.2867 5.45508C27.3629 5.35547 27.3863 5.10352 27.3277 4.95703C27.2691 4.79883 23.7418 1.5293 23.5894 1.48828C23.5074 1.4707 23.3785 1.47656 23.2964 1.50586C23.2203 1.5293 22.3472 2.31445 21.3629 3.24023C19.5875 4.9043 19.5699 4.92773 19.5699 5.16211C19.5699 5.33203 19.6109 5.4375 19.7164 5.53711C19.8511 5.67773 19.8922 5.68359 20.566 5.68359H21.2691V7.5293V9.375H19.2183H17.1675V8.73047V8.08594H17.8648C18.4683 8.08594 18.5797 8.06836 18.7086 7.96875C18.8961 7.82227 18.9605 7.55859 18.855 7.35938C18.7437 7.14844 15.2984 3.93164 15.1343 3.89062C15.0582 3.86719 14.941 3.86719 14.8648 3.89062C14.7066 3.92578 11.2554 7.14844 11.1441 7.35938C11.0386 7.55859 11.1031 7.82227 11.2906 7.96875C11.4195 8.06836 11.5308 8.08594 12.1343 8.08594H12.8316V8.73047V9.375H10.7808H8.73004V7.5293V5.68359H9.43317C10.107 5.68359 10.148 5.67773 10.2828 5.53711C10.3882 5.4375 10.4293 5.33203 10.4293 5.16211C10.4293 4.93359 10.4 4.9043 8.9527 3.53906C8.13824 2.77148 7.32379 2.00391 7.14215 1.83398C6.79059 1.49414 6.52106 1.40039 6.29254 1.53516ZM7.90973 3.97852L8.64215 4.68164L8.32574 4.6875C8.07965 4.6875 7.97418 4.7168 7.86871 4.81641L7.73395 4.93945V7.16016V9.375H6.56207H5.3902V7.23633C5.3902 4.61719 5.41949 4.7168 4.69879 4.67578L4.44098 4.6582L5.48981 3.68555L6.53277 2.70703L6.85504 2.99414C7.03082 3.15234 7.50543 3.5918 7.90973 3.97852ZM25.0953 4.23047L25.5757 4.68164L25.2711 4.6875C24.5914 4.69336 24.6089 4.62891 24.6089 7.23633V9.375H23.4371H22.2652V7.16016V4.93945L22.1363 4.81641C22.0425 4.72852 21.9078 4.6875 21.6851 4.67578L21.3629 4.6582L22.4117 3.67969L23.4547 2.70117L24.0347 3.24023C24.3511 3.5332 24.8316 3.98438 25.0953 4.23047ZM16.0543 6.07617L17.0972 7.06055L16.7574 7.07812C16.4644 7.08984 16.3882 7.11914 16.2886 7.24805C16.1773 7.39453 16.1714 7.4707 16.1714 9.94336V12.4863L16.3179 12.627C16.4117 12.7266 16.523 12.7734 16.6695 12.7734C16.816 12.7734 16.9273 12.7266 17.0211 12.627C17.1675 12.4863 17.1675 12.4746 17.1675 11.4258V10.3711L21.9019 10.3828L26.6304 10.4004L26.8531 10.541C26.9761 10.6172 27.1461 10.7871 27.2339 10.916L27.3922 11.1562V18.9199C27.3922 26.6895 27.3922 26.6895 27.2691 26.9238C27.1929 27.0703 27.0406 27.2227 26.8648 27.334L26.5836 27.5098H14.9996H3.41559L3.13434 27.334C2.95856 27.2227 2.80621 27.0703 2.73004 26.9238C2.60699 26.6895 2.60699 26.6895 2.60699 18.9199V11.1562L2.7652 10.916C2.85309 10.7871 3.02301 10.6172 3.14606 10.541L3.36871 10.4004L8.10309 10.3828L12.8316 10.3711V11.4258C12.8316 12.4746 12.8316 12.4863 12.9781 12.627C13.0718 12.7266 13.1832 12.7734 13.3296 12.7734C13.4761 12.7734 13.5875 12.7266 13.6812 12.627L13.8277 12.4863V9.94336C13.8277 7.4707 13.8218 7.39453 13.7105 7.24805C13.6109 7.11914 13.5347 7.08984 13.2476 7.07812L12.9019 7.06055L13.9332 6.08203C14.5074 5.54297 14.9761 5.10352 14.9879 5.10352C14.9996 5.09766 15.48 5.53711 16.0543 6.07617Z" fill="#084CAF"/>
<path d="M3.60393 11.4375C3.41643 11.5429 3.34612 11.6719 3.34026 11.9004C3.34026 12.0762 3.38127 12.1523 3.53362 12.2812C3.64494 12.375 5.77776 13.7929 8.27971 15.4394C10.7817 17.0801 12.8266 18.4394 12.8266 18.457C12.8266 18.4746 10.7817 20.0566 8.27971 21.9726C5.77776 23.8887 3.64494 25.541 3.53948 25.6406C3.28752 25.875 3.26408 26.1797 3.48674 26.3965C3.82073 26.7363 3.58635 26.8887 8.87151 22.8222C11.5317 20.7773 13.7406 19.1015 13.7699 19.1015C13.8051 19.1015 14.0571 19.248 14.3266 19.4238C14.6489 19.6289 14.8891 19.7461 15.0004 19.7461C15.1117 19.7461 15.3578 19.6289 15.6742 19.4238C15.9496 19.248 16.2016 19.1015 16.2309 19.1015C16.266 19.1015 18.4692 20.7773 21.1293 22.8222C26.4145 26.8887 26.1801 26.7363 26.5141 26.3965C26.7367 26.1797 26.7133 25.875 26.4613 25.6406C26.3559 25.541 24.2231 23.8887 21.7211 21.9726C19.2192 20.0566 17.1742 18.4746 17.1742 18.457C17.1742 18.4394 19.2192 17.0801 21.7211 15.4394C24.2231 13.7929 26.3559 12.375 26.4672 12.2812C26.6196 12.1523 26.6606 12.0703 26.6606 11.9004C26.6606 11.5312 26.2973 11.2734 25.9867 11.414C25.9106 11.4492 23.4086 13.084 20.4262 15.0527L15.0004 18.6269L10.5063 15.6621C4.28948 11.5605 3.98479 11.3672 3.84416 11.3672C3.77385 11.3672 3.66838 11.4023 3.60393 11.4375Z" fill="#084CAF"/>
</svg>
