<svg width="30" height="30" viewBox="0 0 30 30" fill="none" xmlns="http://www.w3.org/2000/svg">
<g clip-path="url(#clip0_353_18159)">
<path d="M11.2727 8.72461C10.6223 8.95898 10.0774 9.46875 9.76688 10.125L9.57938 10.5176L9.57352 13.9453C9.56766 17.7012 9.56766 17.6895 9.92508 18.2988C10.2473 18.8613 10.9798 19.3594 11.5774 19.4297C11.7356 19.4473 12.7903 19.4824 13.927 19.5L15.9837 19.541L15.7845 19.8809C15.3626 20.6016 15.3216 20.8008 15.3216 22.207V23.4668L15.5442 23.9297C15.7552 24.3691 15.8606 24.4922 17.4309 26.0684L19.095 27.7441L19.1126 28.6992L19.1302 29.6602L19.3235 29.8301L19.511 30H23.6126H27.7141L27.9016 29.8301L28.095 29.6602L28.1126 28.7578L28.1302 27.8555L28.511 27.668C29.1731 27.3398 29.6946 26.7539 29.9056 26.0977C29.9934 25.834 30.0052 25.5176 29.9876 23.6074L29.97 21.416L29.7825 21.0176C29.4602 20.332 28.8977 19.8691 28.0657 19.5996L27.7434 19.4941L28.0364 19.4238C28.7864 19.2539 29.4016 18.7676 29.7473 18.0586L29.97 17.6133V14.0332V10.459L29.7708 10.0488C29.513 9.52148 29.0911 9.09961 28.5638 8.8418L28.1536 8.64258L19.8626 8.63086C11.9817 8.61914 11.554 8.625 11.2727 8.72461ZM27.6497 9.9668C28.0423 10.0488 28.3704 10.3008 28.5403 10.6465L28.6809 10.9277V14.0625C28.6809 17.1914 28.6809 17.1973 28.552 17.4434C28.3938 17.7422 28.0716 18.0059 27.7786 18.0996C27.6321 18.1406 26.97 18.1641 25.9036 18.1641H24.2571V16.3301C24.2571 14.3262 24.2337 14.1562 23.888 13.6172C22.8333 11.959 20.2962 12.0527 19.4173 13.7812C19.1302 14.3438 19.1009 14.6074 19.1009 16.4473V18.1641H15.4973C11.5598 18.1641 11.6595 18.1699 11.2845 17.8242C11.1907 17.7363 11.0677 17.5605 11.0091 17.4316C10.9095 17.2148 10.8977 16.9922 10.8977 14.0625C10.8977 11.1562 10.9095 10.9102 11.0091 10.6934C11.1556 10.3711 11.5423 10.0371 11.8177 9.99023C11.9407 9.9668 12.0696 9.94336 12.0989 9.93164C12.1341 9.91992 15.5794 9.9082 19.7571 9.9082C24.9602 9.90234 27.4505 9.91992 27.6497 9.9668ZM22.177 13.8809C22.3059 13.9395 22.4876 14.0625 22.5813 14.1562C22.9329 14.5078 22.9329 14.5371 22.9681 16.9453L22.9973 19.1602L23.1438 19.3008C23.2493 19.4004 23.929 19.6523 25.5462 20.1855C27.9251 20.9766 28.136 21.0586 28.3352 21.2812C28.6809 21.6562 28.6809 21.668 28.6809 23.7012C28.6809 25.5117 28.6751 25.582 28.552 25.8105C28.3704 26.1504 28.1595 26.3203 27.5618 26.625C26.7942 27.0059 26.7766 27.0352 26.7766 27.9551V28.7109H23.6126H20.4485V27.9375V27.1641L18.638 25.3477C17.1556 23.8477 16.8157 23.4785 16.7337 23.2559C16.6458 23.0273 16.6341 22.8281 16.6516 22.084C16.6692 21.252 16.6809 21.1582 16.8274 20.8477C16.9153 20.6602 17.0559 20.4199 17.1497 20.3027C17.5013 19.8516 18.2278 19.5117 18.8196 19.5117H19.1009V20.6543C19.1009 21.9844 19.1419 22.1543 19.4876 22.3008C19.7571 22.4121 20.0384 22.3711 20.2552 22.1777L20.4192 22.043L20.4485 18.3574C20.4778 14.6836 20.4778 14.6777 20.6067 14.4316C20.7415 14.1797 21.011 13.9395 21.2688 13.834C21.5032 13.7402 21.9251 13.7637 22.177 13.8809Z" fill="#084CAF"/>
<path d="M23.8184 0.0820589C23.3906 0.216825 23.0625 0.421903 22.7285 0.761747C22.1719 1.33011 21.9727 1.9219 21.9727 2.99417C21.9727 3.81448 22.0371 4.18948 22.2598 4.65823C22.4941 5.15628 22.9102 5.56057 23.4668 5.83597L23.9297 6.06448L25.8516 6.08206C27.5039 6.09964 27.8262 6.08792 28.1133 6.00589C28.9805 5.74807 29.6016 5.168 29.877 4.34768C29.9824 4.043 30 3.84378 30 3.02347C30 2.15042 29.9883 2.01565 29.8594 1.67581C29.5957 0.943388 28.9277 0.298856 28.2246 0.0879183C27.8262 -0.0292692 24.1875 -0.0351286 23.8184 0.0820589ZM27.9492 1.42972C28.4414 1.69339 28.6406 2.02737 28.6934 2.68948C28.7109 2.93558 28.7051 3.32229 28.6875 3.53323C28.6348 4.02542 28.3945 4.40042 28.0078 4.6055L27.7441 4.75198L25.9453 4.7344L24.1523 4.71682L23.8945 4.54104C23.7305 4.42386 23.5898 4.25393 23.4844 4.04886C23.332 3.75589 23.3203 3.67386 23.3203 3.08206C23.3203 2.72464 23.3496 2.33206 23.3848 2.20901C23.4961 1.80472 23.9062 1.44143 24.375 1.34183C24.4863 1.31839 25.2949 1.30081 26.1621 1.30667C27.5801 1.31839 27.7676 1.33011 27.9492 1.42972Z" fill="#084CAF"/>
<path d="M1.8155 1.04893C1.36433 1.19541 1.14167 1.31846 0.836986 1.59971C0.479564 1.92783 0.262767 2.25596 0.116283 2.68955C-0.000904866 3.04697 -0.000904868 3.129 0.0108139 6.99619L0.028392 10.9337L0.251048 11.379C0.620189 12.129 1.29402 12.6329 2.12019 12.7735C2.36042 12.8146 3.69636 12.8321 6.00495 12.8204L9.52058 12.8028L9.53816 12.1407L9.55574 11.4845H5.99324C3.6612 11.4845 2.35456 11.461 2.20808 11.42C1.93269 11.3438 1.56941 11.0274 1.42878 10.7345C1.32331 10.5294 1.31745 10.3009 1.31745 6.88486V3.24619L1.4698 2.95908C1.55769 2.7833 1.71589 2.5958 1.86824 2.49033L2.12019 2.31455L9.59675 2.29697C14.8057 2.28525 17.1436 2.29697 17.296 2.34385C17.6065 2.43174 17.8643 2.67197 18.0225 3.01768L18.1632 3.31065V5.95908V8.61338H18.837H19.5108V5.98252C19.5108 4.4708 19.4874 3.22275 19.4522 3.04111C19.3057 2.24424 18.755 1.54111 17.9932 1.17783L17.5479 0.966895L9.84284 0.955176C2.58894 0.943458 2.12019 0.949317 1.8155 1.04893Z" fill="#084CAF"/>
<path d="M4.96289 15.3516C4.20117 15.4805 3.45703 16.0547 3.09375 16.7988L2.90039 17.1973V18.8379V20.4785L3.09375 20.8887C3.35742 21.4395 3.81445 21.9023 4.35938 22.1602L4.77539 22.3535H7.82227H10.8691L11.3086 22.1426C12.2168 21.7031 12.7734 20.8594 12.7734 19.9219V19.5117H12.3516C12.1172 19.5117 11.8301 19.4941 11.7129 19.4766L11.5078 19.4414L11.4434 19.8691C11.3613 20.3848 11.1621 20.7012 10.7812 20.9004L10.5234 21.041L7.75781 21.0234L4.99219 21.0059L4.74023 20.8301C4.58789 20.7246 4.42969 20.5371 4.3418 20.3613C4.19531 20.0801 4.18945 20.0449 4.18945 18.8379C4.18945 17.6777 4.19531 17.5957 4.31836 17.3613C4.48828 17.0508 4.81055 16.7871 5.13281 16.7051C5.29102 16.6641 6.1582 16.6406 7.46484 16.6406H9.55078V15.9668V15.293L7.40039 15.2988C6.21094 15.3047 5.11523 15.3281 4.96289 15.3516Z" fill="#084CAF"/>
</g>
<defs>
<clipPath id="clip0_353_18159">
<rect width="30" height="30" fill="white"/>
</clipPath>
</defs>
</svg>
